<svg xmlns="http://www.w3.org/2000/svg" width="131.475" height="170.998" viewBox="0 0 131.475 170.998">
  <g id="Layer_1-2" transform="translate(0.001 -0.003)">
    <g id="Group_48" data-name="Group 48" transform="translate(-0.001 1.001)">
      <path id="Path_83" data-name="Path 83" d="M107.854,32.281a86.135,86.135,0,0,1-2.027,33.559,67.718,67.718,0,0,1-14.3,27.816Q76.9,110.447,58.417,108.746a83.521,83.521,0,0,1-27.365-6.869q-15.3-7.095-19.144-19.37Q6.738,65.514,20.8,36.561A82.715,82.715,0,0,1,34.655,16.628Q44.216,6.391,50.2,6.38c1.284,0,2.027,1.126,2.252,3.378a24.434,24.434,0,0,1-.113,3.942,69.6,69.6,0,0,1-1.014,12.838A82.051,82.051,0,0,0,50.2,39.151q.1,1.351,14.527,6.081Q79.149,50.063,79.476,49.4,86.807,36.324,90.4,30.93q7.095-10.574,10.811-10.248c1.8.225,3.333,1.757,4.617,4.617a21.718,21.718,0,0,1,2.027,6.982ZM94.228,119.332a28.306,28.306,0,0,1,2.365,9.8c.068.9.113,3.671.113,8.333a39.4,39.4,0,0,0,.563,8.446q.574,2.365,2.365,9.122c1.194,4.212,1.982,7.275,2.365,9.234H69.791a10.167,10.167,0,0,1,1.126-3.829c1.059-2.027,1.847-3.559,2.365-4.617a10.875,10.875,0,0,0,1.689-4.842,11.585,11.585,0,0,0-1.126-6.081,48.133,48.133,0,0,0-2.928-5.518c-.518-.833-2.095-1.081-4.73-.788-.225,0-1.959.293-5.18.9-2.7.676-4.685,1.171-5.969,1.464a17.837,17.837,0,0,1-6.194.225c-.45-.158-2.86-.833-7.207-2.027a23.346,23.346,0,0,0-7.433-1.239,3.436,3.436,0,0,0-2.928,1.914,13.321,13.321,0,0,0-1.351,3.942,12.975,12.975,0,0,0,0,6.306c0,.068.856,2.185,2.59,6.306,1.509,3.829,2.185,6.464,2.027,7.883H2.56c.068-1.194.833-3.311,2.252-6.306a49.925,49.925,0,0,0,2.7-7.32,45.141,45.141,0,0,0,.676-7.433c0-3.6.068-6.036.225-7.32a48.9,48.9,0,0,1,2.59-11.261,37.937,37.937,0,0,1,5.743-10.7,80.331,80.331,0,0,1,7.658-9.234c.158-.158,1.532.405,4.167,1.689a41.955,41.955,0,0,0,4.842,2.027,140.517,140.517,0,0,0,14.415,4.5,50.784,50.784,0,0,0,14.752,1.126,77.039,77.039,0,0,0,8.333-1.689,56.7,56.7,0,0,0,9.122-3.041,16.9,16.9,0,0,0,3.378-1.914c1.869-1.351,2.7-2.207,2.478-2.59l3.6,5.518a66.261,66.261,0,0,1,4.73,9.009Z" transform="translate(3.209 5.735)" fill="#fff" fill-rule="evenodd"/>
      <path id="Path_84" data-name="Path 84" d="M121.648,55.674l4.842,1.351q6.52,5.845,4.5,12.838-1.926,6.993-10.811,9.122l-5.518-1.464-7.207-2.14a58.531,58.531,0,0,0,6.419-21.735ZM18.943,14.908l6.644,3.6A33.491,33.491,0,0,0,14.664,38.444L3.177,32.588c-3.446-4.82-4.1-9.347-1.914-13.626,2.252-4.212,6.464-6.374,12.613-6.532l5.068,2.478Z" transform="translate(0.001 13.311)" fill="#fff" fill-rule="evenodd"/>
      <path id="Path_85" data-name="Path 85" d="M8.41,29.22Q19.66,7.936,38.591,2.755,55.381-1.873,79.019,5.683,100.4,12.778,108.3,29.107q7.534,15.777,2.815,40.879" transform="translate(10.534 -1.001)" fill="none" stroke="#fff" stroke-linecap="round" stroke-linejoin="round" stroke-width="2" fill-rule="evenodd"/>
      <path id="Path_86" data-name="Path 86" d="M23.594,33.957c3.469-1.554,8.176-1.351,14.122.541q7.6,2.432,9.595,7.185c1.4,3.086.743,5.676-1.982,7.725q-8.716,6.622-15.451,4.3Q23.256,51.615,20.17,40.8c-.878-3.243.248-5.518,3.423-6.847Z" transform="translate(24.901 38.97)" fill="#0072b2" fill-rule="evenodd"/>
    </g>
  </g>
</svg>
